<svg xmlns="http://www.w3.org/2000/svg" viewBox="0 0 100 100" width="480" height="480">
  <!-- big soft fluffy fox/squirrel tail; base seam at left x=0, y34..66 -->
  <!-- main fluffy silhouette with soft rounded fur scallops -->
  <path d="M0 34
           Q6 22 14 26 Q22 12 31 20 Q41 8 51 18 Q61 10 71 20 Q83 14 90 30
           Q97 40 90 48 Q97 55 85 61
           Q90 71 78 66 Q72 77 62 66 Q54 77 44 66 Q36 75 26 64 Q18 73 10 64 Q4 67 0 66 Z"
        fill="#8a5a2b" stroke="#241a14" stroke-width="2" stroke-linejoin="round"/>
  <!-- darker under-shade along the belly -->
  <path d="M0 66 Q10 64 18 67 Q26 64 36 67 Q44 64 52 67 Q60 62 70 64
           Q66 58 54 58 Q36 58 20 60 Q10 60 0 60 Z"
        fill="#6e4420" opacity="0.5" stroke="none"/>
  <!-- cream fluffy tip lobe on the right -->
  <path d="M63 24
           Q77 15 88 26 Q97 38 90 48 Q96 56 84 60
           Q74 67 66 56 Q59 46 61 35 Q61 28 63 24 Z"
        fill="#f3e2bd" stroke="#241a14" stroke-width="1.8" stroke-linejoin="round"/>
  <!-- cream tip soft shade -->
  <path d="M64 50 Q70 60 80 58 Q86 56 88 50 Q82 58 72 56 Q66 54 64 50 Z"
        fill="#dcc79a" opacity="0.7" stroke="none"/>
  <!-- top highlight -->
  <path d="M12 30 Q26 18 44 18 Q34 22 24 30 Q18 31 12 30 Z"
        fill="#a8703a" opacity="0.6" stroke="none"/>
  <!-- fur direction strokes -->
  <g fill="none" stroke="#6e4420" stroke-width="1.3" stroke-linecap="round" opacity="0.5">
    <path d="M20 36 Q34 42 50 44"/>
    <path d="M16 48 Q32 52 48 52"/>
    <path d="M24 58 Q38 60 52 58"/>
  </g>
</svg>
