<svg xmlns="http://www.w3.org/2000/svg" viewBox="0 0 1200 800" width="1200" height="800" preserveAspectRatio="xMidYMid slice" aria-hidden="true">
  <defs>
    <radialGradient id="sd-planet" cx="0.35" cy="0.3" r="0.9">
      <stop offset="0" stop-color="#22d3ee" stop-opacity="0.45"/>
      <stop offset="0.6" stop-color="#0e7490" stop-opacity="0.25"/>
      <stop offset="1" stop-color="#0e7490" stop-opacity="0"/>
    </radialGradient>
    <radialGradient id="sd-sun" cx="0.5" cy="0.5" r="0.5">
      <stop offset="0" stop-color="#fb923c" stop-opacity="0.5"/>
      <stop offset="1" stop-color="#fb923c" stop-opacity="0"/>
    </radialGradient>
  </defs>
  <g fill="#e0f2fe">
    <circle cx="120" cy="90" r="1.6" opacity="0.8"/><circle cx="320" cy="160" r="1.2" opacity="0.6"/>
    <circle cx="540" cy="70" r="2" opacity="0.9"/><circle cx="760" cy="140" r="1.3" opacity="0.5"/>
    <circle cx="980" cy="80" r="1.7" opacity="0.7"/><circle cx="1120" cy="200" r="1.2" opacity="0.6"/>
    <circle cx="200" cy="320" r="1.4" opacity="0.6"/><circle cx="450" cy="420" r="1.1" opacity="0.4"/>
    <circle cx="900" cy="360" r="1.6" opacity="0.7"/><circle cx="1080" cy="460" r="1.3" opacity="0.5"/>
    <circle cx="80" cy="560" r="1.5" opacity="0.6"/><circle cx="700" cy="620" r="1.2" opacity="0.5"/>
  </g>
  <circle cx="1050" cy="640" r="320" fill="url(#sd-planet)"/>
  <circle cx="180" cy="160" r="180" fill="url(#sd-sun)"/>
  <g opacity="0.18" stroke="#22d3ee" stroke-width="2" fill="none">
    <path d="M-50 720 Q600 600 1250 740"/>
    <path d="M-50 760 Q600 660 1250 780"/>
  </g>
</svg>
