<svg xmlns="http://www.w3.org/2000/svg" viewBox="0 0 100 100" width="100" height="100">
  <g fill="#8a3fd0" opacity="0.75">
    <path d="M24,28 C20,22 26,18 23,12 C29,16 26,22 30,26 C28,30 26,30 24,28 Z"/>
    <path d="M40,24 C36,18 42,13 39,7 C45,11 42,18 46,22 C44,26 42,26 40,24 Z"/>
    <path d="M56,24 C52,18 58,13 55,7 C61,11 58,18 62,22 C60,26 58,26 56,24 Z"/>
    <path d="M72,26 C68,20 74,16 71,10 C77,14 74,20 78,24 C76,28 74,28 72,26 Z"/>
  </g>
  <path d="M0,34 C18,18 82,18 100,34 L100,66 C82,80 18,80 0,66 Z" fill="#211636" stroke="#0e0a18" stroke-width="2.1" stroke-linejoin="round"/>
  <g stroke="#0e0a18" stroke-width="1.8" stroke-linejoin="round" stroke-linecap="round">
    <path d="M20,60 C16,72 16,84 20,93 C25,97 31,95 31,88 C31,78 32,68 33,62 Z" fill="#1b1230"/>
    <path d="M37,64 C35,75 35,85 38,93 C43,96 48,94 48,87 C48,78 48,70 49,64 Z" fill="#160e28"/>
    <path d="M64,62 C62,74 62,84 65,93 C70,96 76,94 76,87 C76,77 77,68 77,62 Z" fill="#1b1230"/>
    <path d="M81,64 C79,75 79,85 82,93 C87,96 92,94 91,87 C90,77 90,68 89,64 Z" fill="#160e28"/>
    <g fill="#3a2a55" stroke-width="1.2"><path d="M20,92 l2,5 m2,-6 l2,6 m1,-5 l2,5"/><path d="M82,92 l2,5 m2,-6 l2,6 m1,-5 l2,5"/></g>
  </g>
  <path d="M0,52 C20,58 40,60 50,60 C62,60 80,57 100,52 L100,66 C82,80 18,80 0,66 Z" fill="#160e28"/>
  <g stroke="#b35cff" stroke-width="2" fill="none" stroke-linecap="round" opacity="0.95">
    <circle cx="50" cy="40" r="6"/>
    <circle cx="50" cy="40" r="1.6" fill="#b35cff"/>
    <path d="M50,46 L50,56 M45,52 L55,52"/>
    <path d="M30,34 C28,40 28,46 31,52"/>
    <path d="M34,36 C32,42 32,47 34,52"/>
    <path d="M68,36 C72,40 73,46 70,52 C66,50 66,42 68,36 Z"/>
    <path d="M24,62 L24,68 M26,63 L26,67"/>
    <path d="M40,62 L40,69 M38,65 L43,65"/>
  </g>
  <g fill="#c97aff" opacity="0.35"><circle cx="50" cy="40" r="9"/><circle cx="32" cy="42" r="5"/><circle cx="69" cy="44" r="5"/></g>
  <ellipse cx="9" cy="50" rx="7.5" ry="16" fill="#3a1f5c" stroke="#0e0a18" stroke-width="2"/>
  <ellipse cx="10" cy="50" rx="4.2" ry="11" fill="#1a0e2c"/>
  <ellipse cx="10" cy="50" rx="2" ry="6" fill="#7a3fc0" opacity="0.6"/>
  <ellipse cx="91" cy="50" rx="7.5" ry="16" fill="#3a1f5c" stroke="#0e0a18" stroke-width="2"/>
  <ellipse cx="90" cy="50" rx="4.2" ry="11" fill="#1a0e2c"/>
  <ellipse cx="90" cy="50" rx="2" ry="6" fill="#7a3fc0" opacity="0.6"/>
</svg>
