<svg xmlns="http://www.w3.org/2000/svg" viewBox="0 0 100 100" width="100" height="100">
  <g stroke="#1a1430" stroke-width="1.8" stroke-linejoin="round" stroke-linecap="round">
    <path d="M22,64 C20,75 20,84 24,92 L33,92 C33,82 33,72 34,64 Z" fill="#3b46d6"/>
    <path d="M40,66 C39,76 39,84 41,92 L49,92 C49,82 49,73 50,66 Z" fill="#3340c0"/>
    <path d="M62,64 C60,75 60,84 64,92 L73,92 C73,82 73,72 72,64 Z" fill="#3b46d6"/>
    <path d="M80,66 C79,76 79,84 81,92 L89,92 C89,82 89,73 88,66 Z" fill="#3340c0"/>
    <g fill="#3a3a44" stroke-width="1.4">
      <path d="M24,91 l3,4 m1,-5 l2,5 m1,-5 l2,4"/>
      <path d="M82,91 l3,4 m1,-5 l2,5 m1,-5 l2,4"/>
    </g>
  </g>
  <path d="M0,34 C18,18 82,18 100,34 L100,66 C82,80 18,80 0,66 Z" fill="#3b46d6" stroke="#1a1430" stroke-width="2.1" stroke-linejoin="round"/>
  <path d="M30,60 C42,56 58,56 70,60 C70,68 60,72 50,72 C40,72 30,68 30,60 Z" fill="#b9b0d6" stroke="#1a1430" stroke-width="1.4"/>
  <g fill="none" stroke="#6e62b0" stroke-width="1" opacity="0.7"><path d="M38,59 L38,71 M46,57 L46,72 M54,57 L54,72 M62,59 L62,71"/></g>
  <g stroke="#2a2f8a" stroke-width="1" fill="#4a5ae0">
    <path d="M16,32 q4,5 8,0 q4,5 8,0 q4,5 8,0 q4,5 8,0 q4,5 8,0 q4,5 8,0 q4,5 8,0 v3 q-4,5 -8,0 q-4,5 -8,0 q-4,5 -8,0 q-4,5 -8,0 q-4,5 -8,0 q-4,5 -8,0 q-4,5 -8,0 z"/>
    <path d="M16,40 q4,5 8,0 q4,5 8,0 q4,5 8,0 q4,5 8,0 q4,5 8,0 q4,5 8,0 q4,5 8,0 v3 q-4,5 -8,0 q-4,5 -8,0 q-4,5 -8,0 q-4,5 -8,0 q-4,5 -8,0 q-4,5 -8,0 q-4,5 -8,0 z" fill="#3f4fd6"/>
    <path d="M16,48 q4,5 8,0 q4,5 8,0 q4,5 8,0 q4,5 8,0 q4,5 8,0 q4,5 8,0 q4,5 8,0 v3 q-4,5 -8,0 q-4,5 -8,0 q-4,5 -8,0 q-4,5 -8,0 q-4,5 -8,0 q-4,5 -8,0 q-4,5 -8,0 z"/>
  </g>
  <g fill="#6fd0ff" opacity="0.85"><circle cx="24" cy="33" r="1.3"/><circle cx="40" cy="33" r="1.3"/><circle cx="56" cy="33" r="1.3"/><circle cx="72" cy="33" r="1.3"/><circle cx="32" cy="41" r="1.3"/><circle cx="48" cy="41" r="1.3"/><circle cx="64" cy="41" r="1.3"/><circle cx="40" cy="49" r="1.3"/><circle cx="56" cy="49" r="1.3"/></g>
  <path d="M0,40 C6,39 9,44 9,50 C9,56 6,61 0,60 Z" fill="#2f3ab0" stroke="#1a1430" stroke-width="1.8" stroke-linejoin="round"/>
  <ellipse cx="4.4" cy="50" rx="2.3" ry="5.5" fill="#1a1130"/>
  <path d="M100,40 C94,39 91,44 91,50 C91,56 94,61 100,60 Z" fill="#2f3ab0" stroke="#1a1430" stroke-width="1.8" stroke-linejoin="round"/>
  <ellipse cx="95.6" cy="50" rx="2.3" ry="5.5" fill="#1a1130"/>
</svg>
