<svg xmlns="http://www.w3.org/2000/svg" viewBox="0 0 100 100" width="100" height="100">
  <g stroke="#2b1810" stroke-width="1.8" stroke-linejoin="round" stroke-linecap="round">
    <path d="M20,60 C16,72 15,84 19,93 C24,97 30,95 30,88 C30,78 31,68 33,62 Z" fill="#b85a28"/>
    <path d="M36,64 C34,75 34,85 37,93 C42,96 47,94 47,87 C47,78 47,70 48,64 Z" fill="#a85020"/>
    <path d="M64,62 C62,74 62,84 65,93 C70,96 75,94 75,87 C75,77 76,68 76,62 Z" fill="#b85a28"/>
    <path d="M82,64 C80,75 80,85 83,93 C88,96 93,94 92,87 C91,77 90,68 89,62 Z" fill="#a85020"/>
    <g fill="#3a3a44" stroke-width="1.3">
      <path d="M19,92 l3,5 m1,-6 l2,6 m1,-5 l2,5"/>
      <path d="M83,92 l3,5 m1,-6 l2,6 m1,-5 l2,5"/>
    </g>
  </g>
  <path d="M0,34 C18,18 82,18 100,34 L100,66 C82,80 18,80 0,66 Z" fill="#c2622e" stroke="#2b1810" stroke-width="2.1" stroke-linejoin="round"/>
  <g fill="none" stroke="#8f4018" stroke-width="1.7" stroke-linecap="round">
    <path d="M26,26 C30,38 32,52 30,66"/>
    <path d="M40,24 C44,38 45,54 42,68"/>
    <path d="M54,40 C66,38 80,40 86,46 C80,52 66,54 54,52 C58,48 58,44 54,40 Z"/>
    <path d="M58,24 C56,32 54,36 52,42"/>
    <path d="M72,26 C74,36 75,46 74,62"/>
    <path d="M30,46 C40,44 48,44 54,46"/>
    <path d="M22,52 C30,54 38,55 46,54"/>
  </g>
  <g fill="#e58a4d" opacity="0.8">
    <path d="M28,28 C32,30 33,40 31,48 C28,42 27,34 28,28 Z"/>
    <path d="M68,28 C72,32 73,42 71,50 C68,42 67,34 68,28 Z"/>
    <path d="M58,42 C66,41 74,43 78,46 C72,47 64,47 58,46 Z"/>
  </g>
  <path d="M2,34 C12,30 16,40 16,50 C16,60 12,70 2,66 Z" fill="#5a2a12" stroke="#2b1810" stroke-width="2" stroke-linejoin="round"/>
  <path d="M5,37 C12,36 13,44 13,50 C13,56 12,64 5,63" fill="none" stroke="#8f4018" stroke-width="1.6"/>
  <path d="M98,36 C92,38 90,44 90,50 C90,57 92,63 98,64" fill="#a85020" stroke="#2b1810" stroke-width="1.8" stroke-linejoin="round"/>
</svg>
