<svg xmlns="http://www.w3.org/2000/svg" viewBox="0 0 100 100" width="100" height="100">
  <g stroke="#2b2b2b" stroke-width="1.8" stroke-linejoin="round" stroke-linecap="round">
    <path d="M28,62 C24,72 24,82 28,88 C33,91 39,89 39,82 C39,75 39,68 40,63 Z" fill="#f1e6cd"/>
    <path d="M58,62 C54,72 54,82 58,88 C63,91 69,89 69,82 C69,75 69,68 70,63 Z" fill="#f1e6cd"/>
  </g>
  <path d="M0,34 C16,18 84,18 100,34 L100,66 C84,80 16,80 0,66 Z" fill="#f3ead5" stroke="#2b2b2b" stroke-width="2.1" stroke-linejoin="round"/>
  <path d="M0,52 C20,60 80,60 100,52 L100,66 C84,80 16,80 0,66 Z" fill="#e7dcc0" opacity="0.55"/>
  <path d="M14,22 C40,16 60,16 86,22 C70,26 30,26 14,22 Z" fill="#fdf8ec" opacity="0.8"/>
  <g stroke="#b9a87e" stroke-width="1.3" stroke-dasharray="2.4 2.4" fill="none" stroke-linecap="round">
    <path d="M24,24 C22,40 22,56 26,68"/>
    <path d="M76,24 C78,40 78,56 74,68"/>
  </g>
  <g stroke="#2b2b2b" stroke-width="1.6">
    <circle cx="32" cy="42" r="4.2" fill="#c79a52"/><circle cx="32" cy="56" r="4.2" fill="#c79a52"/>
    <circle cx="68" cy="42" r="4.2" fill="#c79a52"/><circle cx="68" cy="56" r="4.2" fill="#c79a52"/>
  </g>
  <g stroke="#7a5a26" stroke-width="1" stroke-linecap="round">
    <path d="M30,40 l4,4 M34,40 l-4,4 M30,54 l4,4 M34,54 l-4,4 M66,40 l4,4 M70,40 l-4,4 M66,54 l4,4 M70,54 l-4,4"/>
  </g>
  <path d="M0,32 C9,32 11,42 11,50 C11,58 9,68 0,68 Z" fill="#efe4cb" stroke="#2b2b2b" stroke-width="1.9" stroke-linejoin="round"/>
  <path d="M100,32 C91,32 89,42 89,50 C89,58 91,68 100,68 Z" fill="#efe4cb" stroke="#2b2b2b" stroke-width="1.9" stroke-linejoin="round"/>
  <g stroke="#cdbf9c" stroke-width="1.2" fill="none" stroke-linecap="round">
    <path d="M2,36 C8,37 9,43 5,46 M2,48 C8,49 9,55 5,58 M2,60 C7,61 8,64 5,66"/>
    <path d="M98,36 C92,37 91,43 95,46 M98,48 C92,49 91,55 95,58 M98,60 C93,61 92,64 95,66"/>
  </g>
</svg>
