<svg xmlns="http://www.w3.org/2000/svg" viewBox="0 0 100 100" width="100" height="100">
  <g stroke="#241a14" stroke-width="1.8" stroke-linejoin="round" stroke-linecap="round">
    <path d="M22,60 C18,72 17,84 21,93 C26,97 32,95 32,88 C32,78 33,68 34,62 Z" fill="#5a4636"/>
    <path d="M38,64 C36,75 36,85 39,93 C44,96 49,94 49,87 C49,78 49,70 50,64 Z" fill="#6e5a44"/>
    <path d="M64,62 C62,74 62,84 65,93 C70,96 76,94 76,87 C76,77 77,68 77,62 Z" fill="#5a4636"/>
    <path d="M82,64 C80,75 80,85 83,93 C88,96 92,94 91,87 C90,77 90,68 89,64 Z" fill="#6e5a44"/>
    <g fill="#2b211a" stroke-width="1.2"><path d="M21,92 l2,5 m2,-6 l2,6 m1,-5 l2,5"/><path d="M83,92 l2,5 m2,-6 l2,6 m1,-5 l2,5"/></g>
  </g>
  <path d="M0,34 L4,28 L7,33 L12,25 L16,31 L22,23 L27,30 L34,22 L40,29 L48,21 L54,28 L62,21 L68,28 L76,23 L82,29 L88,25 L93,31 L98,27 L100,34 L100,66 C82,80 18,80 0,66 Z" fill="#5a4636" stroke="#241a14" stroke-width="2" stroke-linejoin="round"/>
  <path d="M30,52 C40,58 60,58 70,52 C72,62 62,72 50,72 C38,72 28,62 30,52 Z" fill="#7a5f48"/>
  <g fill="none" stroke="#3a2c20" stroke-width="1.5" stroke-linecap="round">
    <path d="M14,38 C18,42 18,50 16,56"/>
    <path d="M86,38 C82,42 82,50 84,56"/>
    <path d="M40,34 C42,40 42,48 40,56"/>
    <path d="M58,34 C60,42 60,50 58,58"/>
    <path d="M50,30 L54,46"/>
  </g>
  <g stroke="#241a14" stroke-width="1.2">
    <circle cx="32" cy="42" r="3.5" fill="#a04545"/><circle cx="32" cy="42" r="1.4" fill="#5e2222"/>
    <circle cx="68" cy="46" r="3.8" fill="#a04545"/><circle cx="68" cy="46" r="1.6" fill="#5e2222"/>
    <circle cx="46" cy="50" r="2.8" fill="#9c4040"/>
    <circle cx="60" cy="40" r="2.4" fill="#9c4040"/>
    <path d="M40,40 l8,6" stroke="#7a2e2e" stroke-width="1.8" fill="none"/>
  </g>
  <path d="M44,68 C44,74 42,78 43,82 C44,79 46,79 47,82 C48,78 47,74 48,70 C50,75 49,80 51,83 C52,79 53,79 54,82 C55,77 53,72 54,68 Z" fill="#e8e4d8" stroke="#bdb9aa" stroke-width="0.8"/>
  <path d="M0,40 C6,39 9,44 9,50 C9,56 6,61 0,60 Z" fill="#4a382b" stroke="#241a14" stroke-width="1.8" stroke-linejoin="round"/>
  <ellipse cx="4.6" cy="50" rx="2.6" ry="6" fill="#6e2a2a"/>
  <ellipse cx="4.6" cy="50" rx="1.3" ry="3.4" fill="#3a1414"/>
  <path d="M100,40 C94,39 91,44 91,50 C91,56 94,61 100,60 Z" fill="#4a382b" stroke="#241a14" stroke-width="1.8" stroke-linejoin="round"/>
  <ellipse cx="95.4" cy="50" rx="2.6" ry="6" fill="#6e2a2a"/>
  <ellipse cx="95.4" cy="50" rx="1.3" ry="3.4" fill="#3a1414"/>
</svg>
