<svg xmlns="http://www.w3.org/2000/svg" viewBox="0 0 100 100" width="100" height="100">
  <g stroke="#163006" stroke-width="1.8" stroke-linejoin="round" stroke-linecap="round">
    <path d="M28,64 C26,74 26,82 29,88 C33,91 37,89 37,83 C37,76 36,70 36,64 Z" fill="#7ec820"/>
    <path d="M58,64 C56,74 56,82 59,88 C63,91 67,89 67,83 C67,76 66,70 66,64 Z" fill="#7ec820"/>
  </g>
  <path d="M0,33
    C6,30 8,38 14,34 C20,30 24,38 30,33 C36,29 40,38 48,33 C56,29 60,38 68,33 C76,29 80,38 88,34 C94,31 96,36 100,33
    L100,67
    C96,69 96,76 92,73 C90,81 86,73 84,67
    C80,67 78,77 74,73 C72,67 68,67 64,67
    C62,77 58,75 56,69
    C50,69 46,81 44,73 C42,67 38,67 36,67
    C34,79 30,77 28,69
    C22,69 20,79 16,73 C14,67 8,69 6,67
    L0,67 Z"
    fill="#8fd62e" stroke="#163006" stroke-width="2.1" stroke-linejoin="round"/>
  <path d="M0,34 C6,30 8,38 14,34 C20,30 24,38 30,33 C36,29 40,38 48,33 C56,29 60,38 68,33 C76,29 80,38 88,34 C94,31 96,36 100,34 C90,42 70,46 50,46 C30,46 12,42 0,42 Z" fill="#b6ec5a" opacity="0.8"/>
  <g fill="#c6f06a" opacity="0.55"><circle cx="38" cy="48" r="5"/><circle cx="55" cy="52" r="7"/><circle cx="46" cy="58" r="4"/><circle cx="64" cy="46" r="4"/><circle cx="28" cy="54" r="4"/><circle cx="72" cy="56" r="3.5"/></g>
  <g fill="none" stroke="#4f8a14" stroke-width="1" opacity="0.6"><circle cx="38" cy="48" r="5"/><circle cx="55" cy="52" r="7"/><circle cx="46" cy="58" r="4"/><circle cx="64" cy="46" r="4"/><circle cx="28" cy="54" r="4"/><circle cx="72" cy="56" r="3.5"/></g>
  <g fill="#eaf8c0" opacity="0.9"><ellipse cx="36" cy="46" rx="1.8" ry="1.2"/><ellipse cx="53" cy="49" rx="2.4" ry="1.4"/><ellipse cx="40" cy="36" rx="3" ry="1.6"/><ellipse cx="62" cy="44" rx="1.6" ry="1"/></g>
  <ellipse cx="8" cy="50" rx="6" ry="14" fill="#5aa018" stroke="#163006" stroke-width="1.8"/>
  <ellipse cx="9" cy="50" rx="3" ry="9" fill="#2f5a0e"/>
  <ellipse cx="92" cy="50" rx="6" ry="14" fill="#5aa018" stroke="#163006" stroke-width="1.8"/>
  <ellipse cx="91" cy="50" rx="3" ry="9" fill="#2f5a0e"/>
</svg>
