<svg xmlns="http://www.w3.org/2000/svg" viewBox="0 0 100 100" width="100" height="100">
  <g stroke="#241a14" stroke-width="1.7" stroke-linejoin="round">
    <path d="M14,28 L20,4 L26,28 Z" fill="#c8c0aa"/>
    <path d="M34,30 L42,2 L48,30 Z" fill="#cdc6b0"/>
    <path d="M56,28 L62,5 L70,30 Z" fill="#c8c0aa"/>
    <path d="M76,30 L82,10 L88,32 Z" fill="#c2baa4"/>
    <path d="M5,38 L0,22 L13,36 Z" fill="#bcb49e"/>
    <path d="M92,40 L100,24 L98,40 Z" fill="#bcb49e"/>
  </g>
  <path d="M0,34 C16,20 84,20 100,34 L100,66 C84,79 16,79 0,66 Z" fill="#4a5340" stroke="#241a14" stroke-width="2.1" stroke-linejoin="round"/>
  <path d="M0,52 C20,58 40,60 50,60 C62,60 80,57 100,52 L100,66 C84,79 16,79 0,66 Z" fill="#3b4233"/>
  <g fill="none" stroke="#353c2e" stroke-width="1.4" stroke-linecap="round">
    <path d="M14,40 C30,44 70,44 86,40"/>
    <path d="M18,50 C34,53 66,53 82,50"/>
    <path d="M24,62 C38,66 62,66 76,62"/>
  </g>
  <g fill="#5e6a50">
    <path d="M22,34 l5,2 l-2,5 l-5,-2 z"/><path d="M40,32 l5,2 l-2,5 l-5,-2 z"/><path d="M58,33 l5,2 l-2,5 l-5,-2 z"/><path d="M74,36 l5,2 l-2,5 l-5,-2 z"/><path d="M32,44 l4,2 l-2,4 l-4,-2 z"/><path d="M66,45 l4,2 l-2,4 l-4,-2 z"/>
  </g>
  <g stroke="#241a14" stroke-width="1.6" stroke-linejoin="round">
    <path d="M24,52 L30,38 L33,54 Z" fill="#c8c0aa"/>
    <path d="M70,54 L74,40 L80,56 Z" fill="#c8c0aa"/>
    <path d="M30,66 L34,56 L38,68 Z" fill="#bcb49e"/>
    <path d="M64,68 L68,58 L72,70 Z" fill="#bcb49e"/>
  </g>
  <g fill="none" stroke="#8a8270" stroke-width="0.8" opacity="0.8">
    <path d="M20,5 L20,26"/><path d="M42,3 L42,28"/><path d="M62,6 L63,27"/><path d="M82,11 L82,30"/><path d="M30,39 L30,52"/><path d="M74,41 L74,54"/>
  </g>
  <path d="M0,40 C5,40 7,44 7,50 C7,56 5,60 0,60" fill="#353c2e" stroke="#241a14" stroke-width="1.8" stroke-linejoin="round"/>
</svg>
