<svg xmlns="http://www.w3.org/2000/svg" viewBox="0 0 100 100" width="100" height="100">
  <g stroke="#241a14" stroke-width="1.8" stroke-linejoin="round" stroke-linecap="round">
    <path d="M26,62 C20,72 18,82 22,90 C27,95 33,93 33,86 C33,78 34,70 36,64 Z" fill="#5f6e2a"/>
    <path d="M70,62 C76,72 78,82 74,90 C69,95 63,93 63,86 C63,78 66,70 64,64 Z" fill="#5f6e2a"/>
    <path d="M19,89 q-3,3 -6,3 m9,-1 q-1,4 -2,5 m6,-4 q1,4 1,5" fill="none" stroke-width="1.4"/>
    <path d="M71,89 q3,3 6,3 m-9,-1 q1,4 2,5 m-6,-4 q-1,4 -1,5" fill="none" stroke-width="1.4"/>
  </g>
  <path d="M0,34 C16,19 84,19 100,34 L100,66 C84,78 16,78 0,66 Z" fill="#6b7a2e" stroke="#241a14" stroke-width="2.1" stroke-linejoin="round"/>
  <path d="M22,56 C36,52 64,52 78,56 C76,70 64,76 50,76 C36,76 24,70 22,56 Z" fill="#c4c08a"/>
  <path d="M22,56 C36,52 64,52 78,56" fill="none" stroke="#4d5a1f" stroke-width="1.2" opacity="0.7"/>
  <g fill="#4d5a1f">
    <circle cx="24" cy="30" r="3.2"/><circle cx="38" cy="26" r="3.6"/><circle cx="52" cy="24" r="3.4"/><circle cx="66" cy="26" r="3.6"/><circle cx="80" cy="31" r="3"/>
    <circle cx="31" cy="40" r="2.8"/><circle cx="46" cy="38" r="3.4"/><circle cx="62" cy="38" r="2.8"/><circle cx="74" cy="42" r="2.6"/>
    <circle cx="20" cy="44" r="2.4"/><circle cx="86" cy="40" r="2.2"/>
  </g>
  <g fill="#8a9942">
    <circle cx="23.2" cy="29" r="1.1"/><circle cx="37" cy="25" r="1.2"/><circle cx="51" cy="23" r="1.1"/><circle cx="65" cy="25" r="1.2"/><circle cx="45" cy="37" r="1.1"/>
  </g>
  <g fill="none" stroke="#a39c6a" stroke-width="1.2">
    <circle cx="34" cy="62" r="2.4"/><circle cx="48" cy="65" r="2.6"/><circle cx="62" cy="62" r="2.4"/><circle cx="42" cy="58" r="1.8"/><circle cx="56" cy="58" r="1.8"/>
  </g>
  <path d="M0,40 C5,40 8,44 8,50 C8,56 5,60 0,60" fill="#c9c79a" stroke="#241a14" stroke-width="1.8" stroke-linejoin="round"/>
  <path d="M3,42 C6,46 6,54 3,58" fill="none" stroke="#9a9468" stroke-width="1.2"/>
</svg>
