<svg xmlns="http://www.w3.org/2000/svg" viewBox="0 0 100 100" width="100" height="100">
  <g stroke="#3a2510" stroke-width="1.8" stroke-linejoin="round" stroke-linecap="round">
    <path d="M22,62 C19,72 17,82 20,90 C24,93 29,92 29,86 C29,77 30,68 32,63 Z" fill="#a9763e"/>
    <path d="M40,66 C38,75 37,84 40,91 C44,94 48,93 48,86 C48,78 48,71 49,66 Z" fill="#9c6c36"/>
    <path d="M62,64 C60,74 59,83 62,90 C66,93 70,92 70,85 C70,76 71,68 72,64 Z" fill="#a9763e"/>
    <path d="M80,66 C78,75 78,84 81,91 C85,94 89,92 88,85 C87,77 87,70 87,66 Z" fill="#9c6c36"/>
    <g fill="none" stroke-width="1.2" stroke="#5e3d1c"><path d="M20,89 q-1,3 -2,4 m6,-3 q0,3 0,4 m4,-4 q1,3 1,4"/><path d="M81,89 q-1,3 -2,4 m6,-3 q0,3 0,4 m4,-4 q1,3 1,4"/></g>
  </g>
  <path d="M0,34 C18,22 82,22 100,34 L100,66 C90,71 86,67 78,69 C68,71 60,73 50,73 C40,73 30,71 22,69 C16,67 10,71 0,66 Z" fill="#b5824a" stroke="#3a2510" stroke-width="2.1" stroke-linejoin="round"/>
  <path d="M0,52 C18,58 82,58 100,52 L100,66 C90,71 86,67 78,69 C68,71 60,73 50,73 C40,73 30,71 22,69 C16,67 10,71 0,66 Z" fill="#9c6c36" opacity="0.6"/>
  <g fill="none" stroke="#7a5226" stroke-width="1" opacity="0.7"><path d="M26,28 L24,66 M42,25 L42,70 M58,25 L58,70 M74,27 L75,67"/></g>
  <g fill="#8a6038" opacity="0.6"><ellipse cx="38" cy="40" rx="7" ry="4"/><ellipse cx="64" cy="38" rx="6" ry="3.5"/><ellipse cx="50" cy="56" rx="9" ry="4"/></g>
  <path d="M56,46 C60,48 64,47 68,50 C64,52 60,51 56,52 Z" fill="#7a5226" stroke="#3a2510" stroke-width="1.1"/>
  <g fill="#bcc8cc" stroke="#8a99a0" stroke-width="0.6">
    <path d="M44,30 q2,4 0,7 q-2,-3 0,-7z"/><path d="M70,32 q2,4 0,7 q-2,-3 0,-7z"/>
    <path d="M34,68 q2,5 0,9 q-2,-4 0,-9z"/><path d="M52,70 q2,5 0,10 q-2,-5 0,-10z"/><path d="M66,68 q2,5 0,9 q-2,-4 0,-9z"/>
  </g>
  <path d="M2,34 C10,30 14,40 14,50 C14,59 10,68 2,64 Z" fill="#caa874" stroke="#3a2510" stroke-width="1.9" stroke-linejoin="round"/>
  <path d="M5,36 l1,4 l-1,2 l1,3 l-1,3 l1,3 l-1,4 l1,4" fill="none" stroke="#7a5226" stroke-width="1.1"/>
  <path d="M98,36 C92,38 90,44 90,50 C90,57 92,63 98,64" fill="none" stroke="#7a5226" stroke-width="1.4"/>
  <path d="M97,37 l-1,4 l1,3 l-1,3 l1,4 l-1,4 l1,4" fill="none" stroke="#5e3d1c" stroke-width="1"/>
</svg>
